<?xml version="1.0" encoding="iso-8859-1"?>
<!-- Generator: Adobe Illustrator 24.1.1, SVG Export Plug-In . SVG Version: 6.00 Build 0)  -->
<svg version="1.1" id="Layer_1" xmlns="http://www.w3.org/2000/svg" xmlns:xlink="http://www.w3.org/1999/xlink" x="0px" y="0px"
	 viewBox="0 0 400 103" style="enable-background:new 0 0 400 103;" xml:space="preserve">
<path style="fill:#FFFFFF;" d="M94.139,58.54c-0.697,0-1.377-0.302-1.827-0.891L78.986,40.145c-0.523-0.689-0.605-1.626-0.221-2.407
	c0.376-0.78,1.177-1.267,2.048-1.267c9.23,0,11.03-2.471,11.03-6.74c0-5.273-4.39-6.099-5.115-6.2h-10.78v32.721
	c0,1.267-1.028,2.287-2.287,2.287c-1.267,0-2.287-1.02-2.287-2.287V21.245c0-1.267,1.02-2.278,2.287-2.278h13.207
	c0.073,0,0.147,0,0.221,0.01c3.223,0.321,9.329,2.984,9.329,10.754c0,8.357-6.198,10.541-11.159,11.102l10.691,14.042
	c0.762,1.001,0.568,2.443-0.433,3.196C95.103,58.384,94.609,58.54,94.139,58.54z"/>
<g>
	<path style="fill:#FFFFFF;" d="M127.007,59.037h-21.563c-1.259,0-2.277-1.029-2.277-2.287V20.282c0-1.259,1.018-2.279,2.277-2.279
		h22.049c1.269,0,2.287,1.02,2.287,2.279c0,1.258-1.018,2.287-2.287,2.287h-19.752v31.885h19.266c1.267,0,2.287,1.037,2.287,2.296
		C129.294,58.007,128.274,59.037,127.007,59.037z"/>
	<path style="fill:#FFFFFF;" d="M124.463,40.807h-19.018c-1.259,0-2.277-1.028-2.277-2.287c0-1.276,1.018-2.295,2.277-2.295h19.018
		c1.267,0,2.297,1.018,2.297,2.295C126.76,39.779,125.73,40.807,124.463,40.807z"/>
</g>
<g>
	<path style="fill:#FFFFFF;" d="M160.702,59.037h-21.563c-1.257,0-2.287-1.029-2.287-2.287V20.282c0-1.259,1.03-2.279,2.287-2.279
		h22.049c1.259,0,2.287,1.02,2.287,2.279c0,1.258-1.028,2.287-2.287,2.287h-19.762v31.885h19.276c1.267,0,2.297,1.037,2.297,2.296
		C162.999,58.007,161.969,59.037,160.702,59.037z"/>
	<path style="fill:#FFFFFF;" d="M158.168,40.807h-19.029c-1.257,0-2.287-1.028-2.287-2.287c0-1.276,1.03-2.295,2.287-2.295h19.029
		c1.259,0,2.277,1.018,2.277,2.295C160.444,39.779,159.426,40.807,158.168,40.807z"/>
</g>
<path style="fill:#FFFFFF;" d="M173.622,59.037c-1.267,0-2.285-1.029-2.285-2.287V21.906c0-1.009,0.652-1.901,1.625-2.195
	c0.964-0.293,1.992,0.092,2.552,0.919l18.422,27.513V21.245c0-1.267,1.02-2.278,2.287-2.278c1.269,0,2.287,1.011,2.287,2.278v34.429
	c0,1.011-0.66,1.901-1.625,2.195c-0.955,0.294-2.003-0.083-2.563-0.928l-18.412-27.513V56.75
	C175.911,58.007,174.881,59.037,173.622,59.037z"/>
<path style="fill:#FFFFFF;" d="M248.158,58.595h-19.681c-1.267,0-2.287-1.02-2.287-2.287V20.484c0-1.268,1.02-2.297,2.287-2.297
	c1.257,0,2.277,1.029,2.277,2.297v33.537h17.404c1.257,0,2.287,1.029,2.287,2.287C250.445,57.575,249.415,58.595,248.158,58.595z"/>
<path style="fill:#FFFFFF;" d="M328.964,58.595h-13.958c-1.267,0-2.289-1.02-2.289-2.287V21.365c0-1.258,1.022-2.287,2.289-2.287
	c1.267,0,2.285,1.029,2.285,2.287v13.536h6.687c4.866,0.028,16.062,0.056,16.364,11.323c0.249,8.881-7.181,11.966-11.149,12.361
	C329.12,58.595,329.037,58.595,328.964,58.595z M317.29,54.021h11.545c1.065-0.137,7.118-1.193,6.942-7.677
	c-0.155-5.712-4.418-6.841-11.726-6.869h-6.761V54.021z"/>
<path style="fill:#FFFFFF;" d="M315.006,53.388c-1.267,0-2.289-1.028-2.289-2.287V20.327c0-1.267,1.022-2.277,2.289-2.277h12.232
	c0.074,0,0.147,0,0.221,0.008c3.572,0.35,10.249,3.133,10.028,11.159c-0.266,10.176-10.268,10.213-14.539,10.24h-5.657v11.644
	C317.29,52.36,316.272,53.388,315.006,53.388z M317.29,34.874h5.576c6.446-0.027,9.918-0.946,10.055-5.786
	c0.157-5.418-4.856-6.345-5.821-6.474h-9.81V34.874z"/>
<path style="fill:#FFFFFF;" d="M358.818,59.055c-5.16,0-9.779-2.718-12.369-7.494c-0.597-1.112-0.194-2.498,0.918-3.104
	c1.111-0.597,2.497-0.192,3.094,0.928c2.663,4.904,7.613,5.629,11.058,4.748c3.159-0.799,6.364-3.26,6.364-6.97
	c0-3.232-2.068-3.976-7.505-5.134c-4.096-0.871-8.743-1.864-11.498-5.721c-2.7-3.775-3.186-8.026-1.312-11.653
	c2.066-4.014,6.703-6.603,11.808-6.603c9.295,0,12.767,8.219,12.904,8.577c0.478,1.166-0.082,2.498-1.249,2.976
	c-1.175,0.487-2.497-0.073-2.976-1.24c-0.101-0.239-2.497-5.749-8.68-5.749c-3.425,0-6.454,1.626-7.75,4.132
	c-1.083,2.113-0.744,4.492,0.973,6.906c1.727,2.415,5.134,3.14,8.725,3.913c4.96,1.056,11.132,2.369,11.132,9.596
	c0,5.345-3.959,9.918-9.829,11.415C361.344,58.89,360.069,59.055,358.818,59.055z"/>
<path style="fill:#FFFFFF;" d="M46.872,59.037c-11.617,0-20.627-10.461-20.627-19.471c0-9.926,5.87-20.598,18.782-20.598
	c13.306,0,18.577,9.441,18.798,9.844c0.597,1.103,0.194,2.499-0.918,3.096c-1.103,0.605-2.489,0.192-3.094-0.91
	c-0.194-0.331-4.308-7.467-14.786-7.467c-11.214,0-14.226,10.084-14.226,16.034c0,6.75,7.182,14.888,16.072,14.888
	c9.258,0,11.635-2.893,12.665-8.266v-4.059h-12.51c-1.267,0-2.295-1.02-2.295-2.287c0-1.249,1.028-2.277,2.295-2.277h14.796
	c1.257,0,2.276,1.028,2.276,2.277v6.566c0,0.129-0.008,0.276-0.037,0.404C62.465,55.501,57.487,59.037,46.872,59.037z"/>
<path style="fill:#FFFFFF;" d="M280.015,59.881h-22.399l-0.442-0.155c-3.03-1.075-4.224-3.04-4.693-4.51
	c-1.267-3.931,1.388-8.284,2.022-9.23l14.51-27.11V1.794h5.445v18.441l-15.291,28.58l-0.09,0.128
	c-0.791,1.167-1.793,3.435-1.406,4.601c0.055,0.175,0.165,0.533,0.946,0.882h21.398V59.881z"/>
<path style="fill:#FFFFFF;" d="M302.341,59.881h-22.38v-5.455h21.398c0.772-0.349,0.891-0.707,0.946-0.882
	c0.376-1.166-0.625-3.434-1.425-4.61l-0.082-0.12l-0.074-0.138l-15.225-28.442V1.794h5.454v17.081l14.51,27.11
	c0.624,0.946,3.289,5.299,2.029,9.23c-0.478,1.47-1.68,3.435-4.712,4.51L302.341,59.881z"/>
<rect x="269.519" y="26.783" style="fill:#FFFFFF;" width="23.014" height="1.094"/>
<path style="fill:#FFFFFF;" d="M276.432,38.814c-0.862,0-1.561-0.689-1.561-1.561c0-0.864,0.699-1.562,1.561-1.562
	c0.873,0,1.562,0.698,1.562,1.562C277.994,38.125,277.306,38.814,276.432,38.814z"/>
<path style="fill:#FFFFFF;" d="M288.17,46.445c-1.294,0-2.35-1.046-2.35-2.35c0-1.296,1.057-2.342,2.35-2.342
	c1.296,0,2.352,1.046,2.352,2.342C290.522,45.399,289.465,46.445,288.17,46.445z"/>
<g>
	<path style="fill:#FFFFFF;" d="M65.982,93.873c-0.844-0.928-1.927-1.345-3.141-1.345c-2.085,0-3.654,1.502-3.654,4.155
		c0,2.714,1.212,4.243,3.664,4.243c0.844,0,1.286-0.201,1.607-0.513v-2.498h-2.406v-1.501h4.198v4.954
		c-1.196,0.717-2.371,1.015-3.609,1.015c-3.454,0-5.281-2.255-5.281-5.685c0-3.44,2.285-5.611,5.363-5.611
		c1.312,0,2.497,0.304,3.462,1.029v1.657C66.185,93.888,66.056,93.957,65.982,93.873z"/>
	<path style="fill:#FFFFFF;" d="M77.325,97.626v0.032l2.708,4.596h-2.195l-2.158-4.284h-1.496v4.284h-1.801V91.215h3.187
		c2.536,0,3.95,1.359,3.95,3.242C79.519,96.216,78.582,97.184,77.325,97.626z M77.69,94.503c0-1.19-0.807-1.801-1.908-1.801h-1.617
		v3.839h1.249C76.967,96.542,77.69,96.101,77.69,94.503z"/>
	<path style="fill:#FFFFFF;" d="M92.395,102.254h-6.99V91.215h6.99v1.502h-5.207v2.796h4.85V97h-4.85v3.752h5.207V102.254z"/>
	<path style="fill:#FFFFFF;" d="M105.223,102.254h-6.998V91.215h6.998v1.502h-5.215v2.796h4.858V97h-4.858v3.752h5.215V102.254z"/>
	<path style="fill:#FFFFFF;" d="M116.934,98.925l0.395,1.23l-0.011-1.23v-7.711h1.7v11.039h-2.378l-3.509-7.71l-0.403-1.23
		l0.016,1.23v7.71h-1.698V91.215h2.368L116.934,98.925z"/>
	<path style="fill:#FFFFFF;" d="M144.695,102.254h-1.79v-9.537h-3.509v-1.502h8.825v1.502h-3.526V102.254z"/>
	<path style="fill:#FFFFFF;" d="M160.675,102.254h-6.999V91.215h6.999v1.502h-5.218v2.796h4.86V97h-4.86v3.752h5.218V102.254z"/>
	<path style="fill:#FFFFFF;" d="M173.798,99.256c0.065-0.087,0.192-0.013,0.192,0.101v1.813c-0.981,0.841-2.185,1.213-3.554,1.213
		c-3.113,0-4.968-2.172-4.968-5.638c0-3.559,2.205-5.657,5.144-5.657c1.396,0,2.413,0.257,3.296,1.043v1.799
		c0,0.114-0.129,0.188-0.203,0.101c-0.899-1.029-1.856-1.442-2.994-1.442c-1.929,0-3.37,1.401-3.37,4.095
		c0,2.802,1.157,4.169,3.307,4.169C171.85,100.853,172.907,100.256,173.798,99.256z"/>
	<path style="fill:#FFFFFF;" d="M187.683,91.215v11.039h-1.799v-5.298h-4.463v5.298h-1.801V91.215h1.801v4.242h4.463v-4.242H187.683
		z"/>
	<path style="fill:#FFFFFF;" d="M216.796,99.256c0.063-0.087,0.192-0.013,0.192,0.101v1.813c-0.983,0.841-2.185,1.213-3.554,1.213
		c-3.113,0-4.968-2.172-4.968-5.638c0-3.559,2.205-5.657,5.144-5.657c1.396,0,2.416,0.257,3.297,1.043v1.799
		c0,0.114-0.129,0.188-0.203,0.101c-0.899-1.029-1.856-1.442-2.994-1.442c-1.927,0-3.37,1.401-3.37,4.095
		c0,2.802,1.157,4.169,3.307,4.169C214.848,100.853,215.904,100.256,216.796,99.256z"/>
	<path style="fill:#FFFFFF;" d="M226.485,102.382c-3.049,0-4.823-2.456-4.823-5.625c0-3.153,1.774-5.67,4.823-5.67
		c3.076,0,4.858,2.517,4.858,5.67C231.342,99.926,229.56,102.382,226.485,102.382z M226.485,100.867
		c1.974,0,3.002-1.685,3.002-4.123c0-2.444-1.028-4.142-3.002-4.142c-1.958,0-2.968,1.698-2.968,4.142
		C223.517,99.182,224.527,100.867,226.485,100.867z"/>
	<path style="fill:#FFFFFF;" d="M242.244,97.626v0.032l2.708,4.596h-2.195l-2.159-4.284h-1.495v4.284h-1.801V91.215h3.187
		c2.536,0,3.95,1.359,3.95,3.242C244.438,96.216,243.501,97.184,242.244,97.626z M242.609,94.503c0-1.19-0.807-1.801-1.909-1.801
		h-1.617v3.839h1.249C241.886,96.542,242.609,96.101,242.609,94.503z"/>
	<path style="fill:#FFFFFF;" d="M257.322,94.558c0,2.228-1.533,3.683-3.875,3.683h-1.378v4.013h-1.8V91.215h3.123
		C255.918,91.215,257.322,92.643,257.322,94.558z M255.532,94.632c0-1.171-0.68-1.943-2.397-1.943h-1.083v4.082h0.946
		C254.595,96.771,255.532,95.958,255.532,94.632z"/>
	<path style="fill:#FFFFFF;" d="M267.24,102.382c-3.049,0-4.821-2.456-4.821-5.625c0-3.153,1.772-5.67,4.821-5.67
		c3.078,0,4.86,2.517,4.86,5.67C272.1,99.926,270.318,102.382,267.24,102.382z M267.24,100.867c1.975,0,3.005-1.685,3.005-4.123
		c0-2.444-1.03-4.142-3.005-4.142c-1.956,0-2.965,1.698-2.965,4.142C264.275,99.182,265.284,100.867,267.24,100.867z"/>
	<path style="fill:#FFFFFF;" d="M282.991,97.626v0.032l2.718,4.596h-2.205l-2.148-4.284h-1.506v4.284h-1.79V91.215h3.176
		c2.544,0,3.958,1.359,3.958,3.242C285.194,96.216,284.248,97.184,282.991,97.626z M283.367,94.503c0-1.19-0.817-1.801-1.911-1.801
		h-1.615v3.839h1.239C282.642,96.542,283.367,96.101,283.367,94.503z"/>
	<path style="fill:#FFFFFF;" d="M295.498,91.215l3.693,11.039h-1.801l-0.974-3.026h-3.756l-0.981,3.026h-1.8l3.664-11.039H295.498z
		 M294.534,92.831l-0.284,1.057l-1.23,3.912h3.031l-1.233-3.912L294.534,92.831z"/>
	<path style="fill:#FFFFFF;" d="M307.813,102.254h-1.79v-9.537h-3.509v-1.502h8.825v1.502h-3.526V102.254z"/>
	<path style="fill:#FFFFFF;" d="M318.421,91.215v11.039h-1.801V91.215H318.421z"/>
	<path style="fill:#FFFFFF;" d="M328.862,102.382c-3.058,0-4.83-2.456-4.83-5.625c0-3.153,1.772-5.67,4.83-5.67
		c3.067,0,4.85,2.517,4.85,5.67C333.712,99.926,331.929,102.382,328.862,102.382z M328.862,100.867c1.965,0,2.994-1.685,2.994-4.123
		c0-2.444-1.028-4.142-2.994-4.142c-1.956,0-2.976,1.698-2.976,4.142C325.886,99.182,326.906,100.867,328.862,100.867z"/>
	<path style="fill:#FFFFFF;" d="M345.559,98.925l0.395,1.23l-0.011-1.23v-7.711h1.7v11.039h-2.379l-3.509-7.71l-0.403-1.23
		l0.019,1.23v7.71h-1.7V91.215h2.371L345.559,98.925z"/>
</g>
<g>
	<path style="fill:#FFFFFF;" d="M384.57,0.013h-99.071v4.885h99.071c5.796,0,10.517,4.721,10.517,10.515v45.285
		c0,5.795-4.721,10.515-10.517,10.515H15.354c-5.796,0-10.515-4.72-10.515-10.515V15.414c0-5.794,4.719-10.515,10.515-10.515
		h259.105V0.013H15.354c-8.486,0-15.391,6.906-15.391,15.4v45.285c0,8.485,6.905,15.391,15.391,15.391H384.57
		c8.485,0,15.393-6.906,15.393-15.391V15.414C399.963,6.919,393.055,0.013,384.57,0.013z"/>
</g>
</svg>
