<svg xmlns="http://www.w3.org/2000/svg" width="82.195" height="12" viewBox="0 0 82.195 12">
  <g id="그룹_1" data-name="그룹 1" transform="translate(-556.283 -1039.527)">
    <path id="패스_1" data-name="패스 1" d="M587.059,1051.526l-9.6-7.863v7.863h-3.2v-12h3.2l9.6,7.863v-7.863h3.2v12Z" transform="translate(-11.383)" fill="#fff"/>
    <path id="패스_2" data-name="패스 2" d="M620.576,1039.527h4.307l5.69,8.537,5.69-8.537h4.307l-8,12h-4Z" transform="translate(-40.692)" fill="#fff"/>
    <path id="패스_3" data-name="패스 3" d="M684.158,1051.526h-4.307l-5.69-8.537-5.69,8.537h-4.307l8-12h4Z" transform="translate(-68.281)" fill="#fff"/>
    <rect id="사각형_1" data-name="사각형 1" width="3.599" height="11.999" transform="translate(616.88 1039.527)" fill="#fff"/>
    <path id="패스_4" data-name="패스 4" d="M741.978,1049.126h10.648v2.4H736.631v-2.4l10.648-7.2H736.631v-2.4h15.994v2.4Z" transform="translate(-114.148)" fill="#fff"/>
    <rect id="사각형_2" data-name="사각형 2" width="3.599" height="11.999" transform="translate(556.283 1039.527)" fill="#fff"/>
  </g>
</svg>
